<svg width="3374" height="3684" xmlns="http://www.w3.org/2000/svg" xmlns:xlink="http://www.w3.org/1999/xlink" xml:space="preserve" overflow="hidden"><g transform="translate(-242 426)"><g><path d="M1857.72 779.294 2010.63 544.145C2347.69 559.837 2533.23 606.819 2756.34 716.412 2979.45 826.006 3194.52 998.476 3349.27 1201.7L3261.14 1467.07C3074.51 1229.52 2895.3 1034.06 2661.4 919.435 2427.5 804.804 2215.86 766.716 1857.72 779.294Z" stroke="#FF0000" stroke-width="6.875" stroke-linecap="butt" stroke-linejoin="miter" stroke-miterlimit="8" stroke-opacity="1" fill="none" fill-rule="evenodd"/><path d="M2094.84 437.358 2253.86 208.527C2600.31 252.064 2736.7 289.364 2937.83 388.001 3138.97 486.638 3350.39 672.018 3460.67 800.345L3385.11 1075.69C3276.53 928.203 3051.1 702.592 2836.06 596.203 2621.01 489.814 2476.43 450.721 2094.84 437.358Z" stroke="#FF0000" stroke-width="6.875" stroke-linecap="butt" stroke-linejoin="miter" stroke-miterlimit="8" stroke-opacity="1" fill="none" fill-rule="evenodd"/><path d="M2355.3 101.603 2533.88-114.302C2822.16-64.6361 2939.2-27.3439 3108.92 57.139 3278.65 141.622 3359.36 214.778 3552.23 392.597L3490.46 664.276C3269.48 437.48 3189.68 353.645 3000.49 259.866 2811.29 166.087 2704.02 137.162 2355.3 101.603Z" stroke="#FF0000" stroke-width="6.875" stroke-linecap="butt" stroke-linejoin="miter" stroke-miterlimit="8" stroke-opacity="1" fill="none" fill-rule="evenodd"/><path d="M2645.19-225.257 2846.49-420.824C3079.88-371.35 3146.87-336.892 3274.27-274.675 3401.67-212.457 3504.33-135.889 3610.88-47.5185L3574.55 237.464C3418.98 87.198 3324.9 7.35727 3170-69.763 3015.11-146.883 2916.07-181.455 2645.19-225.257Z" stroke="#FF0000" stroke-width="6.875" stroke-linecap="butt" stroke-linejoin="miter" stroke-miterlimit="8" stroke-opacity="1" fill="none" fill-rule="evenodd"/><path d="M1760.64 2628.31 1613.44 2729.78C1418.61 2638.71 1320.66 2565.98 1215.78 2447.24 1110.89 2328.49 1026.01 2174.64 984.132 2017.31L1100.49 1882.31C1152.81 2067.61 1210.99 2226.3 1321.01 2350.63 1431.03 2474.97 1546.52 2548.79 1760.64 2628.31Z" stroke="#FF0000" stroke-width="6.875" stroke-linecap="butt" stroke-linejoin="miter" stroke-miterlimit="8" stroke-opacity="1" fill="none" fill-rule="evenodd"/><path d="M1537.89 2772.27 1388.62 2868.53C1195.01 2758.77 1123.69 2703.69 1029.09 2596.73 934.5 2489.78 854.9 2329.2 821.056 2226.8L932.426 2082.87C960.615 2196.15 1038.7 2383.83 1139.61 2498.73 1240.53 2613.63 1316.25 2671.77 1537.89 2772.27Z" stroke="#FF0000" stroke-width="6.875" stroke-linecap="butt" stroke-linejoin="miter" stroke-miterlimit="8" stroke-opacity="1" fill="none" fill-rule="evenodd"/><path d="M1302.89 2906.92 1145.23 2990.82C987.395 2891.57 927.471 2841.18 847.951 2750.19 768.431 2659.2 738.619 2596.5 668.116 2444.88L770.471 2299.77C845.65 2487.07 872.331 2555.85 961.067 2657.04 1049.8 2758.23 1106 2801.32 1302.89 2906.92Z" stroke="#FF0000" stroke-width="6.875" stroke-linecap="butt" stroke-linejoin="miter" stroke-miterlimit="8" stroke-opacity="1" fill="none" fill-rule="evenodd"/><path d="M1052.7 3029.19 886.596 3095.58C761.058 3009.77 729.939 2973.2 669.96 2905.61 609.981 2838.02 568.062 2767.97 526.721 2690.03L617.308 2530.89C672.513 2657.21 708.584 2727.11 781.149 2810.16 853.715 2893.21 903.688 2937.62 1052.7 3029.19Z" stroke="#FF0000" stroke-width="6.875" stroke-linecap="butt" stroke-linejoin="miter" stroke-miterlimit="8" stroke-opacity="1" fill="none" fill-rule="evenodd"/><path d="M2520.66 2275.26 2568.94 2411.61C2456.78 2544.64 2379.35 2605.85 2264.5 2662.79 2149.66 2719.72 2011.6 2753.65 1879.87 2753.24L1798.91 2633.92C1954.68 2632.05 2090.9 2620.02 2211.19 2560.24 2331.48 2500.46 2413.46 2425.79 2520.66 2275.26Z" stroke="#FF0000" stroke-width="6.875" stroke-linecap="butt" stroke-linejoin="miter" stroke-miterlimit="8" stroke-opacity="1" fill="none" fill-rule="evenodd"/><path d="M2586.23 2479.58 2630 2616.45C2503.5 2744.59 2445.45 2788.71 2341.99 2840.09 2238.52 2891.47 2096.32 2919.85 2009.2 2924.74L1920.21 2807.43C2014.64 2809.26 2177.69 2787.77 2288.7 2733.12 2399.7 2678.48 2461.06 2631.57 2586.23 2479.58Z" stroke="#FF0000" stroke-width="6.875" stroke-linecap="butt" stroke-linejoin="miter" stroke-miterlimit="8" stroke-opacity="1" fill="none" fill-rule="evenodd"/><path d="M2641.94 2691.51 2674.29 2832.33C2563.53 2934.74 2511.56 2970.94 2423.74 3013.91 2335.91 3056.88 2280.65 3066.96 2147.37 3090.12L2055.55 2979.61C2217.7 2960.31 2277.04 2953.95 2374.78 2905.93 2472.51 2857.92 2518 2823.08 2641.94 2691.51Z" stroke="#FF0000" stroke-width="6.875" stroke-linecap="butt" stroke-linejoin="miter" stroke-miterlimit="8" stroke-opacity="1" fill="none" fill-rule="evenodd"/><path d="M2684.79 2912.69 2701.69 3056.43C2608.23 3136.44 2573.11 3153.05 2507.68 3185.67 2442.25 3218.3 2378.7 3236.3 2309.11 3252.19L2203.86 3147.92C2314.17 3131.39 2376.36 3117.92 2456.51 3078.72 2536.67 3039.51 2581.89 3009.82 2684.79 2912.69Z" stroke="#FF0000" stroke-width="6.875" stroke-linecap="butt" stroke-linejoin="miter" stroke-miterlimit="8" stroke-opacity="1" fill="none" fill-rule="evenodd"/><path d="M2406.48 1600.56 2520.64 1590.26C2600.76 1702.47 2632.55 1773.94 2653.73 1873.29 2674.9 1972.63 2673.85 2085.29 2647.68 2186.34L2540.18 2225.09C2569.33 2105.12 2586.82 1998.18 2564.53 1894.09 2542.25 1790 2501.01 1712.41 2406.48 1600.56Z" stroke="#FF0000" stroke-width="6.875" stroke-linecap="butt" stroke-linejoin="miter" stroke-miterlimit="8" stroke-opacity="1" fill="none" fill-rule="evenodd"/><path d="M2576.21 1590.32 2689.89 1583.57C2763.44 1705.85 2785.92 1759.08 2805.07 1848.6 2824.21 1938.12 2818.09 2052.86 2804.74 2120.71L2697.21 2166.01C2717.14 2093.87 2732.65 1964.47 2712.48 1868.52 2692.31 1772.57 2668.34 1716.25 2576.21 1590.32Z" stroke="#FF0000" stroke-width="6.875" stroke-linecap="butt" stroke-linejoin="miter" stroke-miterlimit="8" stroke-opacity="1" fill="none" fill-rule="evenodd"/><path d="M2749.86 1589.14 2864.33 1591.94C2921.21 1697.08 2938.81 1744.09 2954.56 1819.95 2970.31 1895.81 2967.21 1940.21 2958.83 2047.09L2855.97 2095.89C2872.97 1967.62 2879.73 1920.8 2862.05 1836.34 2844.37 1751.88 2826.55 1710.12 2749.86 1589.14Z" stroke="#FF0000" stroke-width="6.875" stroke-linecap="butt" stroke-linejoin="miter" stroke-miterlimit="8" stroke-opacity="1" fill="none" fill-rule="evenodd"/><path d="M2928.09 1599.65 3041.76 1614.89C3084.84 1702.35 3090.7 1732.57 3102.91 1789.21 3115.12 1845.85 3116.47 1898.17 3115 1954.72L3014.29 2015.06C3023.25 1927.13 3025.12 1876.73 3010.75 1807.5 2996.38 1738.27 2982.46 1697.72 2928.09 1599.65Z" stroke="#FF0000" stroke-width="6.875" stroke-linecap="butt" stroke-linejoin="miter" stroke-miterlimit="8" stroke-opacity="1" fill="none" fill-rule="evenodd"/><path d="M1860.29 1541.01 1877.07 1450.96C1980.73 1413.6 2042.59 1404.61 2123.6 1409.82 2204.6 1415.02 2291.04 1440.21 2363.12 1482.2L2369.66 1573.28C2283.68 1524.91 2205.2 1488.31 2120.3 1482.93 2035.41 1477.55 1966.79 1492.49 1860.29 1541.01Z" stroke="#FF0000" stroke-width="6.875" stroke-linecap="butt" stroke-linejoin="miter" stroke-miterlimit="8" stroke-opacity="1" fill="none" fill-rule="evenodd"/><path d="M1889.14 1408.22 1908.55 1319.31C2018.53 1289.19 2064.34 1283.41 2137.35 1288.05 2210.36 1292.7 2297.3 1322.23 2346.61 1347.18L2358.19 1439.7C2307.01 1408.76 2210.81 1368.83 2132.64 1363.59 2054.46 1358.34 2005.96 1364.6 1889.14 1408.22Z" stroke="#FF0000" stroke-width="6.875" stroke-linecap="butt" stroke-linejoin="miter" stroke-miterlimit="8" stroke-opacity="1" fill="none" fill-rule="evenodd"/><path d="M1925.81 1274.38 1952.73 1186.93C2045.92 1165.92 2085.89 1162.55 2147.66 1166.85 2209.42 1171.15 2242.91 1183.14 2323.31 1212.71L2338.6 1302.4C2243.6 1261.57 2209.05 1246.24 2140.25 1241.56 2071.45 1236.89 2035.47 1241.56 1925.81 1274.38Z" stroke="#FF0000" stroke-width="6.875" stroke-linecap="butt" stroke-linejoin="miter" stroke-miterlimit="8" stroke-opacity="1" fill="none" fill-rule="evenodd"/><path d="M1972.46 1139.55 2008.78 1055.4C2085.38 1041.18 2109.9 1043.22 2156.11 1046.08 2202.32 1048.94 2242.86 1059.23 2286.05 1072.59L2310.68 1163.12C2244.97 1137.2 2206.61 1124.86 2150.24 1120.93 2093.87 1117 2059.67 1118.94 1972.46 1139.55Z" stroke="#FF0000" stroke-width="6.875" stroke-linecap="butt" stroke-linejoin="miter" stroke-miterlimit="8" stroke-opacity="1" fill="none" fill-rule="evenodd"/><path d="M1762.55 1966.72 1690.87 1944.17C1670.8 1857.52 1669.66 1807.17 1682 1742.95 1694.35 1678.73 1723.51 1612.2 1764.93 1558.86L1839.78 1562.88C1791.78 1626.69 1754.11 1685.7 1741.24 1753.01 1728.37 1820.32 1733.67 1876.68 1762.55 1966.72Z" stroke="#FF0000" stroke-width="6.875" stroke-linecap="butt" stroke-linejoin="miter" stroke-miterlimit="8" stroke-opacity="1" fill="none" fill-rule="evenodd"/><path d="M1657.28 1930.02 1586.79 1905.48C1573.24 1814.51 1573.12 1777.31 1584.2 1719.43 1595.29 1661.55 1628.05 1595.05 1653.3 1558.18L1729.83 1558.32C1699.51 1596.08 1657.36 1668.92 1645.27 1730.87 1633.17 1792.82 1633.42 1832.22 1657.28 1930.02Z" stroke="#FF0000" stroke-width="6.875" stroke-linecap="butt" stroke-linejoin="miter" stroke-miterlimit="8" stroke-opacity="1" fill="none" fill-rule="evenodd"/><path d="M1551.93 1886.96 1483.38 1856.56C1475.58 1779.94 1476.84 1747.65 1486.51 1698.72 1496.19 1649.79 1509.31 1624.24 1541.44 1562.98L1616.04 1559.87C1573.27 1631.65 1557.33 1657.71 1546.64 1712.22 1535.95 1766.74 1536.16 1795.97 1551.93 1886.96Z" stroke="#FF0000" stroke-width="6.875" stroke-linecap="butt" stroke-linejoin="miter" stroke-miterlimit="8" stroke-opacity="1" fill="none" fill-rule="evenodd"/><path d="M1446.77 1835.81 1381.85 1798.24C1377.93 1735.57 1382.03 1716.18 1388.99 1679.53 1395.94 1642.89 1408.38 1611.53 1423.58 1578.37L1499.79 1567.88C1472.11 1617.76 1458.22 1647.17 1449.38 1691.83 1440.54 1736.48 1438.7 1764.01 1446.77 1835.81Z" stroke="#FF0000" stroke-width="6.875" stroke-linecap="butt" stroke-linejoin="miter" stroke-miterlimit="8" stroke-opacity="1" fill="none" fill-rule="evenodd"/><path d="M2034.96 2161.32 1994.55 2208.17C1925.1 2196.01 1888.28 2181.03 1845.96 2151.54 1803.64 2122.05 1765.29 2079.18 1740.61 2031.23L1768.67 1976.17C1798.72 2032.37 1828.76 2079.27 1873.14 2110.13 1917.52 2140.99 1960.09 2154.72 2034.96 2161.32Z" stroke="#FF0000" stroke-width="6.875" stroke-linecap="butt" stroke-linejoin="miter" stroke-miterlimit="8" stroke-opacity="1" fill="none" fill-rule="evenodd"/><path d="M1972.76 2228.83 1931.31 2274.15C1860.94 2255.73 1833.97 2244.12 1795.81 2217.57 1757.65 2191.02 1720.54 2145.46 1702.35 2114.86L1728.16 2057.31C1745.3 2092.01 1783.84 2146.64 1824.61 2175.22 1865.37 2203.81 1893.97 2216.02 1972.76 2228.83Z" stroke="#FF0000" stroke-width="6.875" stroke-linecap="butt" stroke-linejoin="miter" stroke-miterlimit="8" stroke-opacity="1" fill="none" fill-rule="evenodd"/><path d="M1905.93 2294.4 1860.89 2336.42C1802.83 2318.18 1779.89 2307.08 1747.73 2284.41 1715.57 2261.73 1701.49 2243.82 1667.96 2200.38L1690.78 2143.27C1728.35 2198.03 1741.85 2218.23 1777.71 2243.41 1813.56 2268.6 1834.79 2277.64 1905.93 2294.4Z" stroke="#FF0000" stroke-width="6.875" stroke-linecap="butt" stroke-linejoin="miter" stroke-miterlimit="8" stroke-opacity="1" fill="none" fill-rule="evenodd"/><path d="M1833.31 2357.28 1784.3 2394.31C1737.63 2377.55 1724.98 2368.36 1700.8 2351.6 1676.62 2334.84 1658.11 2315.62 1639.22 2293.75L1657.24 2233.1C1684.04 2269.62 1700.65 2289.33 1729.99 2310.02 1759.34 2330.72 1778.64 2340.77 1833.31 2357.28Z" stroke="#FF0000" stroke-width="6.875" stroke-linecap="butt" stroke-linejoin="miter" stroke-miterlimit="8" stroke-opacity="1" fill="none" fill-rule="evenodd"/><path d="M1092.79 1835.43 922.923 1689.32C971.26 1424.15 1028.22 1282.27 1138.76 1117.33 1249.29 952.378 1408.74 800.491 1586.12 699.632L1786.81 797.68C1578.86 920.115 1405.04 1041.16 1289.37 1214.12 1173.69 1387.07 1120.99 1550.56 1092.79 1835.43Z" stroke="#FF0000" stroke-width="6.875" stroke-linecap="butt" stroke-linejoin="miter" stroke-miterlimit="8" stroke-opacity="1" fill="none" fill-rule="evenodd"/><path d="M847.357 1611.27 683.145 1461C754.527 1191.37 798.588 1087.37 898.106 938.65 997.624 789.93 1166.91 642.31 1280.25 568.678L1490.18 657.836C1361.85 728.078 1159.22 882.499 1052.09 1041.41 944.949 1200.31 898.595 1310.61 847.357 1611.27Z" stroke="#FF0000" stroke-width="6.875" stroke-linecap="butt" stroke-linejoin="miter" stroke-miterlimit="8" stroke-opacity="1" fill="none" fill-rule="evenodd"/><path d="M609.307 1369.3 457.411 1204.92C527.446 981.997 569.44 893.315 654.406 767.953 739.372 642.59 805.887 586.485 967.21 452.745L1175.7 530.599C972.614 681.371 897.742 735.614 803.342 875.397 708.943 1015.18 674.614 1097.02 609.307 1369.3Z" stroke="#FF0000" stroke-width="6.875" stroke-linecap="butt" stroke-linejoin="miter" stroke-miterlimit="8" stroke-opacity="1" fill="none" fill-rule="evenodd"/><path d="M381.433 1104.98 248.059 924.784C312.093 745.291 346.51 695.925 409.34 601.699 472.17 507.472 543.725 434.354 625.037 359.423L846.775 418.55C711.24 525.691 638.008 591.671 560.451 706.076 482.893 820.481 444.972 895.199 381.433 1104.98Z" stroke="#FF0000" stroke-width="6.875" stroke-linecap="butt" stroke-linejoin="miter" stroke-miterlimit="8" stroke-opacity="1" fill="none" fill-rule="evenodd"/></g></g></svg>