<svg width="2031" height="422" xmlns="http://www.w3.org/2000/svg" xmlns:xlink="http://www.w3.org/1999/xlink" xml:space="preserve" overflow="hidden"><g transform="translate(-430 -554)"><g><text fill="#353A3F" fill-opacity="1" font-family="SF Orson Casual Medium,SF Orson Casual Medium_MSFontService,sans-serif" font-style="normal" font-variant="normal" font-weight="700" font-stretch="normal" font-size="183" text-anchor="start" direction="ltr" writing-mode="lr-tb" unicode-bidi="normal" text-decoration="none" transform="matrix(1 0 0 1 832.797 793)">RCM Cooperative</text><text fill="#353A3F" fill-opacity="1" font-family="SF Orson Casual Medium,SF Orson Casual Medium_MSFontService,sans-serif" font-style="normal" font-variant="normal" font-weight="700" font-stretch="normal" font-size="71" text-anchor="start" direction="ltr" writing-mode="lr-tb" unicode-bidi="normal" text-decoration="none" transform="matrix(1 0 0 1 842.016 912)">building sustainable research communities</text><g><g><g><path d="M199.69 83.7678 216.126 58.4912C252.358 60.1779 272.302 65.2281 296.284 77.0085 320.267 88.7889 343.385 107.328 360.019 129.173L350.546 157.698C330.485 132.163 311.221 111.153 286.079 98.8318 260.936 86.5099 238.187 82.4157 199.69 83.7678Z" stroke="#353A3F" stroke-width="0.739044" stroke-linecap="butt" stroke-linejoin="miter" stroke-miterlimit="8" stroke-opacity="1" fill="#353A3F" fill-rule="evenodd" fill-opacity="1" transform="matrix(1.00089 0 0 1 407.964 601.791)"/><path d="M225.178 47.0124 242.272 22.415C279.512 27.0948 294.173 31.1043 315.793 41.707 337.414 52.3096 360.14 72.2365 371.994 86.0306L363.872 115.628C352.2 99.7743 327.968 75.5229 304.853 64.087 281.737 52.651 266.196 48.4488 225.178 47.0124Z" stroke="#353A3F" stroke-width="0.739044" stroke-linecap="butt" stroke-linejoin="miter" stroke-miterlimit="8" stroke-opacity="1" fill="#353A3F" fill-rule="evenodd" fill-opacity="1" transform="matrix(1.00089 0 0 1 407.964 601.791)"/><path d="M253.176 10.9215 272.371-12.2865C303.359-6.94785 315.94-2.93925 334.184 6.14198 352.428 15.2232 361.104 23.0869 381.836 42.201L375.196 71.4043C351.442 47.0255 342.865 38.014 322.528 27.9335 302.191 17.853 290.66 14.7438 253.176 10.9215Z" stroke="#353A3F" stroke-width="0.739044" stroke-linecap="butt" stroke-linejoin="miter" stroke-miterlimit="8" stroke-opacity="1" fill="#353A3F" fill-rule="evenodd" fill-opacity="1" transform="matrix(1.00089 0 0 1 407.964 601.791)"/><path d="M284.336-24.2133 305.974-45.2352C331.062-39.9171 338.263-36.2131 351.957-29.5253 365.652-22.8374 376.687-14.607 388.14-5.10785L384.235 25.5254C367.513 9.37307 357.4 0.790847 340.749-7.49895 324.1-15.7887 313.454-19.5049 284.336-24.2133Z" stroke="#353A3F" stroke-width="0.739044" stroke-linecap="butt" stroke-linejoin="miter" stroke-miterlimit="8" stroke-opacity="1" fill="#353A3F" fill-rule="evenodd" fill-opacity="1" transform="matrix(1.00089 0 0 1 407.964 601.791)"/><path d="M189.254 282.522 173.432 293.429C152.489 283.64 141.96 275.822 130.686 263.058 119.412 250.294 110.288 233.756 105.786 216.844L118.294 202.333C123.918 222.251 130.172 239.309 141.998 252.674 153.824 266.039 166.238 273.974 189.254 282.522Z" stroke="#353A3F" stroke-width="0.739044" stroke-linecap="butt" stroke-linejoin="miter" stroke-miterlimit="8" stroke-opacity="1" fill="#353A3F" fill-rule="evenodd" fill-opacity="1" transform="matrix(1.00089 0 0 1 407.964 601.791)"/><path d="M165.311 297.996 149.265 308.344C128.454 296.545 120.788 290.625 110.619 279.127 100.451 267.631 91.8948 250.37 88.2568 239.363L100.228 223.892C103.258 236.068 111.652 256.242 122.499 268.593 133.347 280.944 141.486 287.194 165.311 297.996Z" stroke="#353A3F" stroke-width="0.739044" stroke-linecap="butt" stroke-linejoin="miter" stroke-miterlimit="8" stroke-opacity="1" fill="#353A3F" fill-rule="evenodd" fill-opacity="1" transform="matrix(1.00089 0 0 1 407.964 601.791)"/><path d="M140.05 312.47 123.103 321.489C106.137 310.82 99.6956 305.404 91.1478 295.623 82.6001 285.842 79.3955 279.103 71.817 262.805L82.8194 247.207C90.9005 267.34 93.7685 274.733 103.307 285.61 112.845 296.487 118.886 301.119 140.05 312.47Z" stroke="#353A3F" stroke-width="0.739044" stroke-linecap="butt" stroke-linejoin="miter" stroke-miterlimit="8" stroke-opacity="1" fill="#353A3F" fill-rule="evenodd" fill-opacity="1" transform="matrix(1.00089 0 0 1 407.964 601.791)"/><path d="M113.157 325.613 95.3018 332.75C81.8075 323.526 78.4625 319.595 72.0153 312.329 65.568 305.064 61.062 297.534 56.6182 289.156L66.3556 272.05C72.2897 285.628 76.167 293.142 83.9672 302.069 91.7674 310.997 97.1391 315.77 113.157 325.613Z" stroke="#353A3F" stroke-width="0.739044" stroke-linecap="butt" stroke-linejoin="miter" stroke-miterlimit="8" stroke-opacity="1" fill="#353A3F" fill-rule="evenodd" fill-opacity="1" transform="matrix(1.00089 0 0 1 407.964 601.791)"/><path d="M270.95 244.572 276.14 259.228C264.084 273.528 255.761 280.108 243.415 286.228 231.071 292.348 216.231 295.995 202.071 295.951L193.368 283.125C210.112 282.924 224.755 281.631 237.685 275.205 250.615 268.779 259.427 260.753 270.95 244.572Z" stroke="#353A3F" stroke-width="0.739044" stroke-linecap="butt" stroke-linejoin="miter" stroke-miterlimit="8" stroke-opacity="1" fill="#353A3F" fill-rule="evenodd" fill-opacity="1" transform="matrix(1.00089 0 0 1 407.964 601.791)"/><path d="M277.999 266.535 282.704 281.247C269.106 295.021 262.866 299.764 251.745 305.287 240.623 310.809 225.337 313.86 215.973 314.386L206.407 301.776C216.557 301.973 234.084 299.663 246.017 293.788 257.948 287.915 264.544 282.872 277.999 266.535Z" stroke="#353A3F" stroke-width="0.739044" stroke-linecap="butt" stroke-linejoin="miter" stroke-miterlimit="8" stroke-opacity="1" fill="#353A3F" fill-rule="evenodd" fill-opacity="1" transform="matrix(1.00089 0 0 1 407.964 601.791)"/><path d="M283.987 289.315 287.464 304.452C275.559 315.461 269.972 319.352 260.532 323.971 251.091 328.59 245.151 329.673 230.825 332.163L220.955 320.284C238.385 318.209 244.763 317.526 255.27 312.364 265.775 307.203 270.664 303.458 283.987 289.315Z" stroke="#353A3F" stroke-width="0.739044" stroke-linecap="butt" stroke-linejoin="miter" stroke-miterlimit="8" stroke-opacity="1" fill="#353A3F" fill-rule="evenodd" fill-opacity="1" transform="matrix(1.00089 0 0 1 407.964 601.791)"/><path d="M288.593 313.09 290.41 328.541C280.363 337.142 276.588 338.927 269.555 342.434 262.522 345.941 255.691 347.876 248.211 349.584L236.897 338.376C248.754 336.599 255.439 335.151 264.055 330.937 272.671 326.723 277.532 323.531 288.593 313.09Z" stroke="#353A3F" stroke-width="0.739044" stroke-linecap="butt" stroke-linejoin="miter" stroke-miterlimit="8" stroke-opacity="1" fill="#353A3F" fill-rule="evenodd" fill-opacity="1" transform="matrix(1.00089 0 0 1 407.964 601.791)"/><path d="M258.677 172.047 270.948 170.94C279.561 183.002 282.978 190.684 285.254 201.363 287.53 212.042 287.417 224.152 284.604 235.014L273.049 239.179C276.182 226.283 278.062 214.788 275.666 203.599 273.271 192.41 268.838 184.07 258.677 172.047Z" stroke="#353A3F" stroke-width="0.739044" stroke-linecap="butt" stroke-linejoin="miter" stroke-miterlimit="8" stroke-opacity="1" fill="#353A3F" fill-rule="evenodd" fill-opacity="1" transform="matrix(1.00089 0 0 1 407.964 601.791)"/><path d="M276.922 170.946 289.141 170.221C297.047 183.365 299.464 189.087 301.522 198.709 303.58 208.332 302.922 220.666 301.487 227.959L289.928 232.828C292.07 225.074 293.738 211.165 291.57 200.851 289.401 190.537 286.825 184.483 276.922 170.946Z" stroke="#353A3F" stroke-width="0.739044" stroke-linecap="butt" stroke-linejoin="miter" stroke-miterlimit="8" stroke-opacity="1" fill="#353A3F" fill-rule="evenodd" fill-opacity="1" transform="matrix(1.00089 0 0 1 407.964 601.791)"/><path d="M295.588 170.82 307.892 171.121C314.006 182.422 315.898 187.475 317.591 195.63 319.284 203.784 318.951 208.557 318.05 220.046L306.994 225.291C308.821 211.503 309.548 206.47 307.647 197.392 305.747 188.313 303.831 183.824 295.588 170.82Z" stroke="#353A3F" stroke-width="0.739044" stroke-linecap="butt" stroke-linejoin="miter" stroke-miterlimit="8" stroke-opacity="1" fill="#353A3F" fill-rule="evenodd" fill-opacity="1" transform="matrix(1.00089 0 0 1 407.964 601.791)"/><path d="M314.746 171.949 326.964 173.588C331.595 182.989 332.225 186.237 333.538 192.326 334.85 198.414 334.995 204.038 334.837 210.116L324.012 216.603C324.975 207.151 325.176 201.733 323.631 194.292 322.086 186.85 320.59 182.491 314.746 171.949Z" stroke="#353A3F" stroke-width="0.739044" stroke-linecap="butt" stroke-linejoin="miter" stroke-miterlimit="8" stroke-opacity="1" fill="#353A3F" fill-rule="evenodd" fill-opacity="1" transform="matrix(1.00089 0 0 1 407.964 601.791)"/><path d="M199.966 165.646 201.77 155.966C212.912 151.95 219.562 150.984 228.27 151.544 236.977 152.103 246.268 154.811 254.016 159.324L254.719 169.115C245.477 163.915 237.041 159.981 227.915 159.403 218.79 158.825 211.414 160.431 199.966 165.646Z" stroke="#353A3F" stroke-width="0.739044" stroke-linecap="butt" stroke-linejoin="miter" stroke-miterlimit="8" stroke-opacity="1" fill="#353A3F" fill-rule="evenodd" fill-opacity="1" transform="matrix(1.00089 0 0 1 407.964 601.791)"/><path d="M203.067 151.372 205.154 141.815C216.976 138.577 221.9 137.956 229.748 138.455 237.596 138.955 246.941 142.129 252.241 144.811L253.486 154.756C247.985 151.43 237.644 147.138 229.241 146.575 220.838 146.01 215.624 146.683 203.067 151.372Z" stroke="#353A3F" stroke-width="0.739044" stroke-linecap="butt" stroke-linejoin="miter" stroke-miterlimit="8" stroke-opacity="1" fill="#353A3F" fill-rule="evenodd" fill-opacity="1" transform="matrix(1.00089 0 0 1 407.964 601.791)"/><path d="M207.009 136.985 209.903 127.585C219.92 125.327 224.216 124.965 230.856 125.427 237.495 125.889 241.095 127.178 249.737 130.356L251.38 139.997C241.169 135.609 237.455 133.961 230.059 133.458 222.664 132.956 218.796 133.458 207.009 136.985Z" stroke="#353A3F" stroke-width="0.739044" stroke-linecap="butt" stroke-linejoin="miter" stroke-miterlimit="8" stroke-opacity="1" fill="#353A3F" fill-rule="evenodd" fill-opacity="1" transform="matrix(1.00089 0 0 1 407.964 601.791)"/><path d="M212.023 122.492 215.928 113.447C224.161 111.918 226.797 112.138 231.764 112.445 236.731 112.753 241.089 113.859 245.732 115.295L248.379 125.026C241.316 122.24 237.193 120.913 231.133 120.491 225.074 120.068 221.398 120.277 212.023 122.492Z" stroke="#353A3F" stroke-width="0.739044" stroke-linecap="butt" stroke-linejoin="miter" stroke-miterlimit="8" stroke-opacity="1" fill="#353A3F" fill-rule="evenodd" fill-opacity="1" transform="matrix(1.00089 0 0 1 407.964 601.791)"/><path d="M189.46 211.406 181.755 208.982C179.597 199.668 179.475 194.256 180.801 187.353 182.129 180.45 185.263 173.298 189.716 167.565L197.761 167.997C192.602 174.856 188.553 181.199 187.169 188.434 185.786 195.67 186.355 201.728 189.46 211.406Z" stroke="#353A3F" stroke-width="0.739044" stroke-linecap="butt" stroke-linejoin="miter" stroke-miterlimit="8" stroke-opacity="1" fill="#353A3F" fill-rule="evenodd" fill-opacity="1" transform="matrix(1.00089 0 0 1 407.964 601.791)"/><path d="M178.144 207.461 170.567 204.824C169.11 195.045 169.098 191.046 170.289 184.825 171.481 178.603 175.002 171.455 177.716 167.492L185.943 167.507C182.683 171.566 178.153 179.395 176.853 186.054 175.552 192.714 175.579 196.949 178.144 207.461Z" stroke="#353A3F" stroke-width="0.739044" stroke-linecap="butt" stroke-linejoin="miter" stroke-miterlimit="8" stroke-opacity="1" fill="#353A3F" fill-rule="evenodd" fill-opacity="1" transform="matrix(1.00089 0 0 1 407.964 601.791)"/><path d="M166.82 202.833 159.451 199.565C158.613 191.329 158.748 187.858 159.788 182.599 160.828 177.339 162.239 174.593 165.692 168.008L173.711 167.673C169.114 175.389 167.4 178.19 166.251 184.05 165.102 189.91 165.125 193.052 166.82 202.833Z" stroke="#353A3F" stroke-width="0.739044" stroke-linecap="butt" stroke-linejoin="miter" stroke-miterlimit="8" stroke-opacity="1" fill="#353A3F" fill-rule="evenodd" fill-opacity="1" transform="matrix(1.00089 0 0 1 407.964 601.791)"/><path d="M155.516 197.335 148.538 193.296C148.116 186.56 148.557 184.475 149.305 180.536 150.052 176.597 151.389 173.226 153.023 169.662L161.215 168.534C158.24 173.896 156.747 177.057 155.797 181.858 154.846 186.657 154.649 189.617 155.516 197.335Z" stroke="#353A3F" stroke-width="0.739044" stroke-linecap="butt" stroke-linejoin="miter" stroke-miterlimit="8" stroke-opacity="1" fill="#353A3F" fill-rule="evenodd" fill-opacity="1" transform="matrix(1.00089 0 0 1 407.964 601.791)"/><path d="M218.742 232.324 214.398 237.36C206.933 236.053 202.975 234.443 198.426 231.273 193.877 228.103 189.754 223.495 187.101 218.341L190.118 212.422C193.348 218.463 196.577 223.505 201.347 226.822 206.118 230.139 210.694 231.615 218.742 232.324Z" stroke="#353A3F" stroke-width="0.739044" stroke-linecap="butt" stroke-linejoin="miter" stroke-miterlimit="8" stroke-opacity="1" fill="#353A3F" fill-rule="evenodd" fill-opacity="1" transform="matrix(1.00089 0 0 1 407.964 601.791)"/><path d="M212.056 239.581 207.6 244.453C200.036 242.473 197.137 241.225 193.035 238.371 188.933 235.517 184.944 230.619 182.989 227.33L185.763 221.144C187.606 224.874 191.748 230.746 196.131 233.818 200.512 236.892 203.586 238.204 212.056 239.581Z" stroke="#353A3F" stroke-width="0.739044" stroke-linecap="butt" stroke-linejoin="miter" stroke-miterlimit="8" stroke-opacity="1" fill="#353A3F" fill-rule="evenodd" fill-opacity="1" transform="matrix(1.00089 0 0 1 407.964 601.791)"/><path d="M204.872 246.629 200.031 251.146C193.79 249.185 191.324 247.992 187.867 245.555 184.41 243.118 182.896 241.192 179.292 236.523L181.745 230.384C185.784 236.27 187.235 238.442 191.089 241.148 194.943 243.856 197.225 244.828 204.872 246.629Z" stroke="#353A3F" stroke-width="0.739044" stroke-linecap="butt" stroke-linejoin="miter" stroke-miterlimit="8" stroke-opacity="1" fill="#353A3F" fill-rule="evenodd" fill-opacity="1" transform="matrix(1.00089 0 0 1 407.964 601.791)"/><path d="M197.066 253.388 191.798 257.369C186.781 255.567 185.421 254.579 182.822 252.778 180.223 250.976 178.233 248.91 176.203 246.559L178.14 240.04C181.021 243.966 182.806 246.084 185.96 248.308 189.115 250.533 191.189 251.614 197.066 253.388Z" stroke="#353A3F" stroke-width="0.739044" stroke-linecap="butt" stroke-linejoin="miter" stroke-miterlimit="8" stroke-opacity="1" fill="#353A3F" fill-rule="evenodd" fill-opacity="1" transform="matrix(1.00089 0 0 1 407.964 601.791)"/><path d="M117.466 197.294 99.2067 181.588C104.403 153.085 110.525 137.834 122.407 120.104 134.289 102.373 151.428 86.0463 170.495 75.2047L192.068 85.7441C169.715 98.9049 151.03 111.916 138.597 130.508 126.162 149.099 120.497 166.673 117.466 197.294Z" stroke="#353A3F" stroke-width="0.739044" stroke-linecap="butt" stroke-linejoin="miter" stroke-miterlimit="8" stroke-opacity="1" fill="#353A3F" fill-rule="evenodd" fill-opacity="1" transform="matrix(1.00089 0 0 1 407.964 601.791)"/><path d="M91.084 173.198 73.4325 157.046C81.1055 128.063 85.8417 116.883 96.5391 100.897 107.236 84.911 125.433 69.0431 137.616 61.1283L160.182 70.712C146.388 78.2625 124.607 94.8615 113.091 111.943 101.574 129.024 96.5916 140.88 91.084 173.198Z" stroke="#353A3F" stroke-width="0.739044" stroke-linecap="butt" stroke-linejoin="miter" stroke-miterlimit="8" stroke-opacity="1" fill="#353A3F" fill-rule="evenodd" fill-opacity="1" transform="matrix(1.00089 0 0 1 407.964 601.791)"/><path d="M65.4955 147.189 49.168 129.519C56.6961 105.557 61.2102 96.0241 70.3433 82.5487 79.4765 69.0732 86.6263 63.0424 103.967 48.6664L126.378 57.0351C104.548 73.2418 96.5 79.0725 86.3527 94.098 76.2056 109.124 72.5155 117.921 65.4955 147.189Z" stroke="#353A3F" stroke-width="0.739044" stroke-linecap="butt" stroke-linejoin="miter" stroke-miterlimit="8" stroke-opacity="1" fill="#353A3F" fill-rule="evenodd" fill-opacity="1" transform="matrix(1.00089 0 0 1 407.964 601.791)"/><path d="M41.0009 118.776 26.6643 99.4068C33.5475 80.1127 37.247 74.8063 44.0007 64.6777 50.7544 54.5491 58.446 46.6895 67.1864 38.635L91.0214 44.9907C76.4525 56.5075 68.5807 63.5998 60.2439 75.8974 51.9071 88.195 47.8309 96.2266 41.0009 118.776Z" stroke="#353A3F" stroke-width="0.739044" stroke-linecap="butt" stroke-linejoin="miter" stroke-miterlimit="8" stroke-opacity="1" fill="#353A3F" fill-rule="evenodd" fill-opacity="1" transform="matrix(1.00089 0 0 1 407.964 601.791)"/></g></g></g></g></g></svg>