<svg width="1008" height="500" xmlns="http://www.w3.org/2000/svg" xmlns:xlink="http://www.w3.org/1999/xlink" xml:space="preserve" overflow="hidden"><g transform="translate(-2305 -1727)"><g><text fill="#353A3F" fill-opacity="1" font-family="SF Orson Casual Medium,SF Orson Casual Medium_MSFontService,sans-serif" font-style="normal" font-variant="normal" font-weight="700" font-stretch="normal" font-size="229" text-anchor="start" direction="ltr" writing-mode="lr-tb" unicode-bidi="normal" text-decoration="none" transform="matrix(1 0 0 1 2720.41 2012)">RCM</text><text fill="#353A3F" fill-opacity="1" font-family="SF Orson Casual Medium,SF Orson Casual Medium_MSFontService,sans-serif" font-style="normal" font-variant="normal" font-weight="700" font-stretch="normal" font-size="101" text-anchor="start" direction="ltr" writing-mode="lr-tb" unicode-bidi="normal" text-decoration="none" transform="matrix(1 0 0 1 2647.96 2138)">Cooperative</text><g><g><g><path d="M199.867 83.8422 216.319 58.5432C252.582 60.2314 272.544 65.2861 296.548 77.0769 320.551 88.8679 343.69 107.423 360.339 129.288L350.858 157.838C330.779 132.281 311.498 111.252 286.333 98.9197 261.168 86.5868 238.399 82.489 199.867 83.8422Z" stroke="#353A3F" stroke-width="0.739702" stroke-linecap="butt" stroke-linejoin="miter" stroke-miterlimit="8" stroke-opacity="1" fill="#353A3F" fill-rule="evenodd" fill-opacity="1" transform="matrix(1 0 0 1.00163 2281.96 1826.91)"/><path d="M225.378 47.0542 242.487 22.4349C279.761 27.1189 294.435 31.1319 316.074 41.744 337.714 52.3561 360.46 72.3007 372.325 86.1071L364.195 115.731C352.513 99.863 328.26 75.5901 305.124 64.144 281.988 52.6978 266.433 48.4919 225.378 47.0542Z" stroke="#353A3F" stroke-width="0.739702" stroke-linecap="butt" stroke-linejoin="miter" stroke-miterlimit="8" stroke-opacity="1" fill="#353A3F" fill-rule="evenodd" fill-opacity="1" transform="matrix(1 0 0 1.00163 2281.96 1826.91)"/><path d="M253.401 10.9312 272.614-12.2975C303.629-6.95403 316.221-2.94186 334.481 6.14744 352.742 15.2367 361.425 23.1074 382.175 42.2385L375.53 71.4678C351.755 47.0674 343.169 38.0478 322.815 27.9583 302.459 17.8689 290.919 14.7569 253.401 10.9312Z" stroke="#353A3F" stroke-width="0.739702" stroke-linecap="butt" stroke-linejoin="miter" stroke-miterlimit="8" stroke-opacity="1" fill="#353A3F" fill-rule="evenodd" fill-opacity="1" transform="matrix(1 0 0 1.00163 2281.96 1826.91)"/><path d="M284.589-24.2348 306.247-45.2754C331.356-39.9526 338.564-36.2453 352.27-29.5516 365.977-22.8577 377.022-14.6199 388.485-5.11239L384.577 25.5481C367.839 9.38141 357.717 0.79155 341.052-7.50562 324.388-15.8028 313.732-19.5223 284.589-24.2348Z" stroke="#353A3F" stroke-width="0.739702" stroke-linecap="butt" stroke-linejoin="miter" stroke-miterlimit="8" stroke-opacity="1" fill="#353A3F" fill-rule="evenodd" fill-opacity="1" transform="matrix(1 0 0 1.00163 2281.96 1826.91)"/><path d="M189.423 282.773 173.586 293.69C152.625 283.892 142.086 276.067 130.803 263.292 119.518 250.516 110.386 233.964 105.88 217.037L118.399 202.513C124.028 222.449 130.287 239.522 142.124 252.898 153.961 266.276 166.386 274.218 189.423 282.773Z" stroke="#353A3F" stroke-width="0.739702" stroke-linecap="butt" stroke-linejoin="miter" stroke-miterlimit="8" stroke-opacity="1" fill="#353A3F" fill-rule="evenodd" fill-opacity="1" transform="matrix(1 0 0 1.00163 2281.96 1826.91)"/><path d="M165.458 298.261 149.398 308.618C128.568 296.809 120.895 290.883 110.717 279.376 100.54 267.869 91.9765 250.593 88.3353 239.576L100.317 224.091C103.35 236.278 111.751 256.47 122.608 268.832 133.465 281.194 141.612 287.449 165.458 298.261Z" stroke="#353A3F" stroke-width="0.739702" stroke-linecap="butt" stroke-linejoin="miter" stroke-miterlimit="8" stroke-opacity="1" fill="#353A3F" fill-rule="evenodd" fill-opacity="1" transform="matrix(1 0 0 1.00163 2281.96 1826.91)"/><path d="M140.175 312.748 123.212 321.775C106.231 311.097 99.7842 305.675 91.2289 295.886 82.6735 286.096 79.4661 279.351 71.8809 263.038L82.893 247.426C90.9813 267.577 93.8519 274.977 103.399 285.864 112.945 296.751 118.992 301.387 140.175 312.748Z" stroke="#353A3F" stroke-width="0.739702" stroke-linecap="butt" stroke-linejoin="miter" stroke-miterlimit="8" stroke-opacity="1" fill="#353A3F" fill-rule="evenodd" fill-opacity="1" transform="matrix(1 0 0 1.00163 2281.96 1826.91)"/><path d="M113.257 325.903 95.3866 333.046C81.8803 323.813 78.5323 319.879 72.0793 312.607 65.6263 305.335 61.1163 297.799 56.6686 289.413L66.4146 272.292C72.354 285.882 76.2347 293.403 84.0418 302.338 91.849 311.273 97.2255 316.051 113.257 325.903Z" stroke="#353A3F" stroke-width="0.739702" stroke-linecap="butt" stroke-linejoin="miter" stroke-miterlimit="8" stroke-opacity="1" fill="#353A3F" fill-rule="evenodd" fill-opacity="1" transform="matrix(1 0 0 1.00163 2281.96 1826.91)"/><path d="M271.191 244.789 276.386 259.459C264.319 273.771 255.988 280.357 243.632 286.483 231.276 292.608 216.423 296.258 202.25 296.214L193.54 283.377C210.299 283.176 224.955 281.881 237.896 275.45 250.838 269.018 259.658 260.985 271.191 244.789Z" stroke="#353A3F" stroke-width="0.739702" stroke-linecap="butt" stroke-linejoin="miter" stroke-miterlimit="8" stroke-opacity="1" fill="#353A3F" fill-rule="evenodd" fill-opacity="1" transform="matrix(1 0 0 1.00163 2281.96 1826.91)"/><path d="M278.246 266.772 282.955 281.497C269.345 295.283 263.1 300.03 251.969 305.558 240.837 311.086 225.538 314.139 216.165 314.665L206.59 302.044C216.75 302.241 234.292 299.929 246.235 294.049 258.178 288.171 264.779 283.124 278.246 266.772Z" stroke="#353A3F" stroke-width="0.739702" stroke-linecap="butt" stroke-linejoin="miter" stroke-miterlimit="8" stroke-opacity="1" fill="#353A3F" fill-rule="evenodd" fill-opacity="1" transform="matrix(1 0 0 1.00163 2281.96 1826.91)"/><path d="M284.24 289.573 287.72 304.723C275.804 315.741 270.212 319.636 260.764 324.259 251.315 328.882 245.369 329.966 231.03 332.458L221.151 320.569C238.597 318.492 244.981 317.808 255.496 312.642 266.011 307.476 270.905 303.728 284.24 289.573Z" stroke="#353A3F" stroke-width="0.739702" stroke-linecap="butt" stroke-linejoin="miter" stroke-miterlimit="8" stroke-opacity="1" fill="#353A3F" fill-rule="evenodd" fill-opacity="1" transform="matrix(1 0 0 1.00163 2281.96 1826.91)"/><path d="M288.85 313.369 290.668 328.833C280.613 337.442 276.834 339.229 269.795 342.738 262.755 346.249 255.918 348.185 248.431 349.895L237.108 338.677C248.976 336.898 255.666 335.449 264.29 331.232 272.914 327.013 277.779 323.819 288.85 313.369Z" stroke="#353A3F" stroke-width="0.739702" stroke-linecap="butt" stroke-linejoin="miter" stroke-miterlimit="8" stroke-opacity="1" fill="#353A3F" fill-rule="evenodd" fill-opacity="1" transform="matrix(1 0 0 1.00163 2281.96 1826.91)"/><path d="M258.907 172.2 271.189 171.092C279.809 183.164 283.229 190.854 285.508 201.542 287.786 212.23 287.673 224.351 284.857 235.223L273.291 239.392C276.428 226.484 278.309 214.979 275.911 203.78 273.514 192.582 269.077 184.234 258.907 172.2Z" stroke="#353A3F" stroke-width="0.739702" stroke-linecap="butt" stroke-linejoin="miter" stroke-miterlimit="8" stroke-opacity="1" fill="#353A3F" fill-rule="evenodd" fill-opacity="1" transform="matrix(1 0 0 1.00163 2281.96 1826.91)"/><path d="M277.168 171.098 289.398 170.372C297.311 183.528 299.73 189.255 301.79 198.886 303.85 208.517 303.191 220.862 301.755 228.162L290.186 233.035C292.33 225.274 293.999 211.352 291.829 201.029 289.659 190.706 287.08 184.647 277.168 171.098Z" stroke="#353A3F" stroke-width="0.739702" stroke-linecap="butt" stroke-linejoin="miter" stroke-miterlimit="8" stroke-opacity="1" fill="#353A3F" fill-rule="evenodd" fill-opacity="1" transform="matrix(1 0 0 1.00163 2281.96 1826.91)"/><path d="M295.85 170.971 308.166 171.273C314.285 182.584 316.179 187.642 317.874 195.804 319.568 203.965 319.234 208.742 318.333 220.241L307.266 225.491C309.095 211.691 309.823 206.654 307.921 197.567 306.018 188.48 304.101 183.987 295.85 170.971Z" stroke="#353A3F" stroke-width="0.739702" stroke-linecap="butt" stroke-linejoin="miter" stroke-miterlimit="8" stroke-opacity="1" fill="#353A3F" fill-rule="evenodd" fill-opacity="1" transform="matrix(1 0 0 1.00163 2281.96 1826.91)"/><path d="M315.026 172.102 327.255 173.742C331.89 183.151 332.52 186.403 333.834 192.497 335.148 198.59 335.293 204.219 335.135 210.303L324.3 216.795C325.264 207.335 325.465 201.913 323.919 194.464 322.373 187.016 320.875 182.653 315.026 172.102Z" stroke="#353A3F" stroke-width="0.739702" stroke-linecap="butt" stroke-linejoin="miter" stroke-miterlimit="8" stroke-opacity="1" fill="#353A3F" fill-rule="evenodd" fill-opacity="1" transform="matrix(1 0 0 1.00163 2281.96 1826.91)"/><path d="M200.144 165.793 201.949 156.105C213.102 152.086 219.757 151.118 228.473 151.679 237.187 152.238 246.487 154.949 254.242 159.466L254.946 169.265C245.695 164.061 237.252 160.123 228.118 159.545 218.985 158.966 211.602 160.573 200.144 165.793Z" stroke="#353A3F" stroke-width="0.739702" stroke-linecap="butt" stroke-linejoin="miter" stroke-miterlimit="8" stroke-opacity="1" fill="#353A3F" fill-rule="evenodd" fill-opacity="1" transform="matrix(1 0 0 1.00163 2281.96 1826.91)"/><path d="M203.248 151.507 205.336 141.941C217.168 138.701 222.097 138.079 229.952 138.578 237.807 139.078 247.161 142.255 252.466 144.94L253.712 154.894C248.205 151.565 237.855 147.269 229.445 146.705 221.034 146.14 215.816 146.814 203.248 151.507Z" stroke="#353A3F" stroke-width="0.739702" stroke-linecap="butt" stroke-linejoin="miter" stroke-miterlimit="8" stroke-opacity="1" fill="#353A3F" fill-rule="evenodd" fill-opacity="1" transform="matrix(1 0 0 1.00163 2281.96 1826.91)"/><path d="M207.193 137.107 210.089 127.699C220.115 125.438 224.416 125.076 231.061 125.538 237.706 126.001 241.309 127.291 249.959 130.472L251.604 140.122C241.383 135.729 237.666 134.08 230.264 133.576 222.862 133.074 218.991 133.576 207.193 137.107Z" stroke="#353A3F" stroke-width="0.739702" stroke-linecap="butt" stroke-linejoin="miter" stroke-miterlimit="8" stroke-opacity="1" fill="#353A3F" fill-rule="evenodd" fill-opacity="1" transform="matrix(1 0 0 1.00163 2281.96 1826.91)"/><path d="M212.212 122.601 216.119 113.548C224.361 112.018 226.999 112.237 231.97 112.545 236.942 112.853 241.304 113.96 245.95 115.397L248.6 125.137C241.531 122.348 237.404 121.021 231.339 120.598 225.274 120.175 221.595 120.384 212.212 122.601Z" stroke="#353A3F" stroke-width="0.739702" stroke-linecap="butt" stroke-linejoin="miter" stroke-miterlimit="8" stroke-opacity="1" fill="#353A3F" fill-rule="evenodd" fill-opacity="1" transform="matrix(1 0 0 1.00163 2281.96 1826.91)"/><path d="M189.628 211.594 181.916 209.168C179.757 199.846 179.634 194.429 180.962 187.52 182.291 180.61 185.428 173.452 189.884 167.714L197.937 168.146C192.773 175.011 188.72 181.36 187.336 188.602 185.951 195.844 186.521 201.907 189.628 211.594Z" stroke="#353A3F" stroke-width="0.739702" stroke-linecap="butt" stroke-linejoin="miter" stroke-miterlimit="8" stroke-opacity="1" fill="#353A3F" fill-rule="evenodd" fill-opacity="1" transform="matrix(1 0 0 1.00163 2281.96 1826.91)"/><path d="M178.303 207.646 170.719 205.006C169.261 195.218 169.248 191.216 170.44 184.989 171.633 178.762 175.158 171.607 177.874 167.641L186.108 167.656C182.846 171.718 178.311 179.555 177.01 186.22 175.709 192.885 175.735 197.124 178.303 207.646Z" stroke="#353A3F" stroke-width="0.739702" stroke-linecap="butt" stroke-linejoin="miter" stroke-miterlimit="8" stroke-opacity="1" fill="#353A3F" fill-rule="evenodd" fill-opacity="1" transform="matrix(1 0 0 1.00163 2281.96 1826.91)"/><path d="M166.968 203.013 159.593 199.743C158.754 191.499 158.889 188.025 159.93 182.761 160.971 177.497 162.383 174.748 165.84 168.157L173.866 167.822C169.264 175.545 167.549 178.349 166.399 184.213 165.249 190.079 165.272 193.224 166.968 203.013Z" stroke="#353A3F" stroke-width="0.739702" stroke-linecap="butt" stroke-linejoin="miter" stroke-miterlimit="8" stroke-opacity="1" fill="#353A3F" fill-rule="evenodd" fill-opacity="1" transform="matrix(1 0 0 1.00163 2281.96 1826.91)"/><path d="M155.654 197.51 148.67 193.468C148.248 186.726 148.689 184.639 149.438 180.696 150.186 176.754 151.524 173.38 153.159 169.813L161.359 168.684C158.381 174.051 156.886 177.215 155.935 182.02 154.984 186.823 154.786 189.785 155.654 197.51Z" stroke="#353A3F" stroke-width="0.739702" stroke-linecap="butt" stroke-linejoin="miter" stroke-miterlimit="8" stroke-opacity="1" fill="#353A3F" fill-rule="evenodd" fill-opacity="1" transform="matrix(1 0 0 1.00163 2281.96 1826.91)"/><path d="M218.936 232.531 214.589 237.571C207.117 236.263 203.155 234.651 198.602 231.479 194.049 228.306 189.923 223.694 187.268 218.535L190.287 212.611C193.52 218.657 196.752 223.703 201.526 227.023 206.301 230.344 210.881 231.821 218.936 232.531Z" stroke="#353A3F" stroke-width="0.739702" stroke-linecap="butt" stroke-linejoin="miter" stroke-miterlimit="8" stroke-opacity="1" fill="#353A3F" fill-rule="evenodd" fill-opacity="1" transform="matrix(1 0 0 1.00163 2281.96 1826.91)"/><path d="M212.244 239.794 207.785 244.67C200.214 242.688 197.312 241.439 193.207 238.583 189.101 235.726 185.108 230.825 183.151 227.532L185.928 221.341C187.772 225.074 191.919 230.951 196.305 234.026 200.69 237.102 203.767 238.416 212.244 239.794Z" stroke="#353A3F" stroke-width="0.739702" stroke-linecap="butt" stroke-linejoin="miter" stroke-miterlimit="8" stroke-opacity="1" fill="#353A3F" fill-rule="evenodd" fill-opacity="1" transform="matrix(1 0 0 1.00163 2281.96 1826.91)"/><path d="M205.054 246.849 200.208 251.369C193.962 249.407 191.494 248.213 188.034 245.774 184.574 243.334 183.059 241.407 179.452 236.733L181.907 230.589C185.949 236.48 187.401 238.654 191.259 241.363 195.116 244.073 197.4 245.045 205.054 246.849Z" stroke="#353A3F" stroke-width="0.739702" stroke-linecap="butt" stroke-linejoin="miter" stroke-miterlimit="8" stroke-opacity="1" fill="#353A3F" fill-rule="evenodd" fill-opacity="1" transform="matrix(1 0 0 1.00163 2281.96 1826.91)"/><path d="M197.241 253.614 191.968 257.598C186.947 255.795 185.586 254.806 182.985 253.003 180.383 251.199 178.392 249.132 176.359 246.779L178.298 240.254C181.182 244.183 182.969 246.303 186.125 248.529 189.283 250.756 191.359 251.837 197.241 253.614Z" stroke="#353A3F" stroke-width="0.739702" stroke-linecap="butt" stroke-linejoin="miter" stroke-miterlimit="8" stroke-opacity="1" fill="#353A3F" fill-rule="evenodd" fill-opacity="1" transform="matrix(1 0 0 1.00163 2281.96 1826.91)"/><path d="M117.57 197.469 99.2949 181.75C104.495 153.221 110.624 137.956 122.516 120.211 134.408 102.464 151.563 86.1228 170.647 75.2716L192.238 85.8203C169.865 98.9928 151.165 112.016 138.72 130.624 126.274 149.231 120.604 166.821 117.57 197.469Z" stroke="#353A3F" stroke-width="0.739702" stroke-linecap="butt" stroke-linejoin="miter" stroke-miterlimit="8" stroke-opacity="1" fill="#353A3F" fill-rule="evenodd" fill-opacity="1" transform="matrix(1 0 0 1.00163 2281.96 1826.91)"/><path d="M91.165 173.352 73.4978 157.185C81.1776 128.176 85.918 116.987 96.6249 100.987 107.332 84.9865 125.545 69.1045 137.739 61.1826L160.325 70.7749C146.518 78.332 124.717 94.9458 113.192 112.043 101.665 129.138 96.6775 141.005 91.165 173.352Z" stroke="#353A3F" stroke-width="0.739702" stroke-linecap="butt" stroke-linejoin="miter" stroke-miterlimit="8" stroke-opacity="1" fill="#353A3F" fill-rule="evenodd" fill-opacity="1" transform="matrix(1 0 0 1.00163 2281.96 1826.91)"/><path d="M65.5538 147.319 49.2117 129.634C56.7466 105.651 61.2646 96.1095 70.4059 82.6221 79.5471 69.1346 86.7033 63.0984 104.06 48.7097L126.491 57.0858C104.641 73.307 96.5858 79.1428 86.4295 94.1817 76.2734 109.221 72.58 118.026 65.5538 147.319Z" stroke="#353A3F" stroke-width="0.739702" stroke-linecap="butt" stroke-linejoin="miter" stroke-miterlimit="8" stroke-opacity="1" fill="#353A3F" fill-rule="evenodd" fill-opacity="1" transform="matrix(1 0 0 1.00163 2281.96 1826.91)"/><path d="M41.0374 118.882 26.688 99.4951C33.5773 80.1839 37.2801 74.8728 44.0398 64.7353 50.7996 54.5976 58.498 46.731 67.2461 38.6694L91.1024 45.0307C76.5205 56.5577 68.6416 63.6564 60.2975 75.9649 51.9532 88.2734 47.8734 96.3122 41.0374 118.882Z" stroke="#353A3F" stroke-width="0.739702" stroke-linecap="butt" stroke-linejoin="miter" stroke-miterlimit="8" stroke-opacity="1" fill="#353A3F" fill-rule="evenodd" fill-opacity="1" transform="matrix(1 0 0 1.00163 2281.96 1826.91)"/></g></g></g></g></g></svg>